Coordinates
version=1
nRows=17
nColumns=40
inDegrees=yes

Units are S.I. units (second, meters, Newtons, ...)
If the header above contains a line with 'inDegrees', this indicates whether rotational values are in degrees (yes) or radians (no).

endheader
time	pelvis_tilt	pelvis_list	pelvis_rotation	pelvis_tx	pelvis_ty	pelvis_tz	hip_flexion_r	hip_adduction_r	hip_rotation_r	knee_angle_r	knee_angle_r_beta	ankle_angle_r	subtalar_angle_r	mtp_angle_r	hip_flexion_l	hip_adduction_l	hip_rotation_l	knee_angle_l	knee_angle_l_beta	ankle_angle_l	subtalar_angle_l	mtp_angle_l	lumbar_extension	lumbar_bending	lumbar_rotation	arm_flex_r	arm_add_r	arm_rot_r	elbow_flex_r	pro_sup_r	wrist_flex_r	wrist_dev_r	arm_flex_l	arm_add_l	arm_rot_l	elbow_flex_l	pro_sup_l	wrist_flex_l	wrist_dev_l
      2.35000000	     -1.93603828	     -3.98966546	     -0.93174280	     -0.34377205	      1.00121703	     -1.05366604	     47.90257386	      1.03150891	     -6.44245680	      7.36812314	      0.12859801	      3.06908287	      0.00000000	      0.00000000	     24.51458934	     -1.90346563	     -3.02364378	     42.55351880	      0.74269901	      6.29278819	      0.00000000	      0.00000000	     -7.98220414	     -1.27463103	      5.96854179	     89.94488907	    -25.75205539	     23.37923661	     41.62952744	     77.37566814	      0.00000000	      0.00000000	     89.86649796	    -43.40791531	     21.54617949	     38.30849258	     85.24911271	      0.00000000	      0.00000000
      2.35500000	     -1.95539397	     -3.98601395	     -1.04012925	     -0.34438884	      1.00072145	     -1.05352994	     47.97309720	      1.12003136	     -6.35469118	      7.36745874	      0.12858641	      2.95164385	      0.00000000	      0.00000000	     24.64881804	     -1.92008638	     -3.00037627	     42.73632229	      0.74588953	      6.31992364	      0.00000000	      0.00000000	     -8.01787110	     -1.27155122	      6.05151418	     89.94528117	    -25.57791577	     23.02122167	     41.69156845	     79.43784226	      0.00000000	      0.00000000	     89.86765643	    -43.47232952	     21.44300896	     38.36720676	     84.94163307	      0.00000000	      0.00000000
      2.36000000	     -1.99485457	     -4.03494967	     -1.11976138	     -0.34494431	      1.00016782	     -1.05332197	     48.06056605	      1.24084230	     -6.40083690	      7.39363946	      0.12904335	      3.02501249	      0.00000000	      0.00000000	     24.79982799	     -2.00316651	     -3.02795852	     42.90003373	      0.74874684	      6.46262738	      0.00000000	      0.00000000	     -8.01815586	     -1.23045018	      6.16295865	     89.94562800	    -25.49088633	     22.94021928	     41.73216654	     79.39443194	      0.00000000	      0.00000000	     89.86950460	    -43.37649266	     21.10037697	     38.34401319	     84.85369897	      0.00000000	      0.00000000
      2.36500000	     -2.05181771	     -4.04964241	     -1.16299888	     -0.34544727	      0.99956219	     -1.05323591	     48.17697348	      1.29884360	     -6.42192756	      7.43387848	      0.12974566	      3.03671584	      0.00000000	      0.00000000	     24.99291995	     -2.02416328	     -2.97230922	     43.11636913	      0.75252260	      6.54096568	      0.00000000	      0.00000000	     -7.98344642	     -1.20057630	      6.19752817	     89.94605519	    -25.30324788	     22.87077663	     41.72317812	     79.40927793	      0.00000000	      0.00000000	     89.87096263	    -43.40181121	     21.02017419	     38.36315958	     84.82662325	      0.00000000	      0.00000000
      2.37000000	     -2.04169965	     -4.07318071	     -1.21890087	     -0.34605254	      0.99905902	     -1.05316858	     48.20086903	      1.37421100	     -6.45351708	      7.40528055	      0.12924653	      2.97873220	      0.00000000	      0.00000000	     25.09147916	     -2.07052169	     -2.99456580	     43.27993657	      0.75537739	      6.62561492	      0.00000000	      0.00000000	     -8.06096404	     -1.16409290	      6.18219127	     89.94652587	    -25.06120166	     23.09501469	     41.84608859	     76.11663580	      0.00000000	      0.00000000	     89.87183716	    -43.49510638	     20.72105616	     38.46376507	     85.12667324	      0.00000000	      0.00000000
      2.37500000	     -2.10486263	     -4.07819975	     -1.23335224	     -0.34670881	      0.99840478	     -1.05306541	     48.35583109	      1.40524514	     -6.47317490	      7.49546091	      0.13082047	      3.04621277	      0.00000000	      0.00000000	     25.30005037	     -2.07341698	     -2.91553600	     43.48652755	      0.75898309	      6.68297168	      0.00000000	      0.00000000	     -8.04416637	     -1.15068493	      6.16926988	     89.94700522	    -24.85281914	     22.91969067	     41.87842304	     75.89260353	      0.00000000	      0.00000000	     89.87362893	    -43.49853577	     20.50141430	     38.46825866	     85.13368822	      0.00000000	      0.00000000
      2.38000000	     -2.09727227	     -4.10339951	     -1.27983426	     -0.34724285	      0.99794870	     -1.05295892	     48.38871989	      1.47773033	     -6.41041288	      7.53759466	      0.13155584	      3.15847422	      0.00000000	      0.00000000	     25.40054596	     -2.11900987	     -2.91191014	     43.65109106	      0.76185526	      6.75059555	      0.00000000	      0.00000000	     -8.09242408	     -1.13271783	      6.25288632	     89.94734945	    -24.79627405	     22.57023736	     41.89013038	     79.13042022	      0.00000000	      0.00000000	     89.87534650	    -43.44246300	     20.35110556	     38.53065764	     84.68043086	      0.00000000	      0.00000000
      2.38500000	     -2.13632333	     -4.09282831	     -1.38704130	     -0.34774938	      0.99738318	     -1.05273552	     48.49737339	      1.55075614	     -6.43348039	      7.57589783	      0.13222436	      3.02017240	      0.00000000	      0.00000000	     25.52948219	     -2.17402379	     -3.01560800	     43.79948001	      0.76444514	      6.84944179	      0.00000000	      0.00000000	     -8.08822442	     -1.13687014	      6.28873631	     89.94764785	    -24.54113425	     22.80624859	     41.94806404	     75.45327164	      0.00000000	      0.00000000	     89.87636338	    -43.52228942	     20.07070347	     38.55456539	     84.97765916	      0.00000000	      0.00000000
      2.39000000	     -2.14308362	     -4.02423919	     -1.41473526	     -0.34843688	      0.99687281	     -1.05272607	     48.56738935	      1.52065542	     -6.43426605	      7.59270683	      0.13251773	      2.92036645	      0.00000000	      0.00000000	     25.66019939	     -2.10777724	     -3.00267867	     43.96325723	      0.76730359	      6.85773034	      0.00000000	      0.00000000	     -8.14656034	     -1.21931228	      6.33956893	     89.94812126	    -24.48994309	     22.39909512	     42.02346690	     78.89569786	      0.00000000	      0.00000000	     89.87790563	    -43.48310843	     19.90409520	     38.68227987	     84.58692519	      0.00000000	      0.00000000
      2.39500000	     -2.16979972	     -4.04679309	     -1.47148922	     -0.34886475	      0.99630895	     -1.05252100	     48.63173864	      1.59679791	     -6.43134276	      7.58746173	      0.13242619	      2.90826582	      0.00000000	      0.00000000	     25.78272736	     -2.18785563	     -3.06011369	     44.11679265	      0.76998329	      6.89431075	      0.00000000	      0.00000000	     -8.15579404	     -1.20527960	      6.34258170	     89.94850474	    -24.30524838	     22.68195034	     42.07856296	     76.11561587	      0.00000000	      0.00000000	     89.87892960	    -43.51647802	     19.60034129	     38.74829975	     84.83179507	      0.00000000	      0.00000000
      2.40000000	     -2.18441944	     -4.04423874	     -1.46089127	     -0.34937089	      0.99579461	     -1.05256527	     48.69595588	      1.58757223	     -6.51825906	      7.60803968	      0.13278534	      2.91524279	      0.00000000	      0.00000000	     25.91251086	     -2.18469883	     -3.02591149	     44.28420183	      0.77290513	      6.92759057	      0.00000000	      0.00000000	     -8.17800528	     -1.19450199	      6.34535591	     89.94865650	    -24.18482265	     22.28396101	     42.04960158	     78.29266358	      0.00000000	      0.00000000	     89.88036477	    -43.50086631	     19.42207632	     38.78561664	     84.59056788	      0.00000000	      0.00000000
      2.40500000	     -2.21687525	     -4.01702095	     -1.54039762	     -0.35006096	      0.99520330	     -1.05231748	     48.80011908	      1.63980297	     -6.50762882	      7.62314129	      0.13304891	      2.83354726	      0.00000000	      0.00000000	     26.07489846	     -2.23044296	     -3.14264747	     44.48110662	      0.77634177	      7.05701337	      0.00000000	      0.00000000	     -8.20903471	     -1.23542351	      6.36852600	     89.94912953	    -23.97492030	     22.44077589	     42.17048799	     76.13456414	      0.00000000	      0.00000000	     89.88155087	    -43.53764785	     19.09063996	     38.90655277	     84.77206014	      0.00000000	      0.00000000
      2.41000000	     -2.22264691	     -4.01548821	     -1.54042021	     -0.35060856	      0.99468316	     -1.05219605	     48.86969104	      1.65282849	     -6.65882872	      7.65526169	      0.13360952	      2.81262586	      0.00000000	      0.00000000	     26.18979009	     -2.25658139	     -3.14743666	     44.63144528	      0.77896567	      7.01565727	      0.00000000	      0.00000000	     -8.24844775	     -1.24450213	      6.36212392	     89.94947649	    -23.84505913	     22.14988748	     42.17786831	     78.17578395	      0.00000000	      0.00000000	     89.88286197	    -43.52574614	     18.87347537	     38.98892465	     84.47815562	      0.00000000	      0.00000000
      2.41500000	     -2.26493949	     -4.01944165	     -1.59704415	     -0.35123377	      0.99400835	     -1.05206854	     48.97251473	      1.70788915	     -6.65375696	      7.66004592	      0.13369302	      2.91310523	      0.00000000	      0.00000000	     26.36265622	     -2.30229893	     -3.20473320	     44.82276377	      0.78230481	      7.11906989	      0.00000000	      0.00000000	     -8.21433237	     -1.24150780	      6.47876405	     89.94953618	    -23.67242591	     23.08357822	     42.38815779	     66.58193897	      0.00000000	      0.00000000	     89.88531975	    -43.36736638	     20.20752333	     39.22857347	     69.79300065	      0.00000000	      0.00000000
      2.42000000	     -2.25428903	     -3.99409643	     -1.50661489	     -0.35171002	      0.99359853	     -1.05218139	     48.98849466	      1.62275287	     -6.75272051	      7.64361953	      0.13340633	      2.86096501	      0.00000000	      0.00000000	     26.45006062	     -2.23965399	     -3.12122602	     44.93465451	      0.78425767	      7.15827324	      0.00000000	      0.00000000	     -8.30244542	     -1.26737529	      6.28868962	     89.95005794	    -23.53972888	     22.09320877	     42.22444958	     77.09934316	      0.00000000	      0.00000000	     89.88530047	    -43.54758536	     18.43920773	     39.20096001	     84.48109268	      0.00000000	      0.00000000
      2.42500000	     -2.28442172	     -3.95133625	     -1.53031056	     -0.35223801	      0.99296690	     -1.05203906	     49.06273718	      1.61665622	     -6.72750171	      7.62436696	      0.13307031	      2.82560369	      0.00000000	      0.00000000	     26.59492121	     -2.24018329	     -3.22410213	     45.10932952	      0.78730632	      7.24432551	      0.00000000	      0.00000000	     -8.31167968	     -1.32655921	      6.28601073	     89.95035559	    -23.40980029	     22.04870291	     42.23984100	     77.56859993	      0.00000000	      0.00000000	     89.88652989	    -43.50806668	     18.06484376	     39.26460096	     84.34751747	      0.00000000	      0.00000000
      2.43000000	     -2.30449560	     -3.89817635	     -1.48237245	     -0.35286323	      0.99245747	     -1.05212715	     49.12317779	      1.54056681	     -6.73604164	      7.59637419	      0.13258174	      2.81457612	      0.00000000	      0.00000000	     26.72285943	     -2.16131815	     -3.17715147	     45.22780275	      0.78937407	      7.28437632	      0.00000000	      0.00000000	     -8.34655333	     -1.36874786	      6.21180582	     89.95072069	    -23.26130659	     21.93336376	     42.28702663	     77.59994241	      0.00000000	      0.00000000	     89.88771434	    -43.55257700	     17.92094065	     39.38586757	     84.30524288	      0.00000000	      0.00000000
